<svg width="216" height="169" viewBox="0 0 216 169" fill="none" xmlns="http://www.w3.org/2000/svg">
<path d="M45.7929 122.883C43.1456 122.883 40.4983 122.883 37.851 122.883C32.5776 122.883 27.2936 122.851 22.0202 122.894C20.4318 122.904 19.2882 122.1 18.2187 121.125C17.9328 120.861 17.8693 120.363 17.6787 119.982C17.3927 119.42 16.8633 119.219 16.4185 119.632C15.7408 120.268 14.9467 120.479 14.0783 120.585C13.1783 120.691 12.2782 120.924 11.3887 120.882C10.0015 120.808 8.61433 120.575 7.22715 120.352C6.8883 120.299 6.58121 120.035 6.27413 119.855C6.05176 119.728 5.85056 119.548 5.6176 119.463C4.32572 118.997 3.468 118.002 2.72676 116.943C1.82668 115.64 1.24428 114.211 1.05367 112.58C0.799535 110.346 1.08544 108.175 1.36076 105.983C1.38194 105.835 1.45606 105.697 1.53019 105.57C2.1973 104.299 2.73735 102.933 3.83862 101.97C4.55869 101.345 5.36346 100.784 6.2106 100.328C6.92007 99.947 7.71426 99.7246 8.49785 99.5234C9.28145 99.3222 10.0968 99.1634 10.9016 99.1316C12.4794 99.0681 14.0466 99.1316 15.6244 99.1105C16.7044 99.0893 17.1916 98.7504 17.0645 97.5856C16.9798 96.8444 17.9222 96.3043 18.8223 96.3573C20.1989 96.442 21.5966 96.4738 22.9626 96.3467C24.2228 96.2302 25.1017 96.8338 25.1017 98.0939C25.1017 103.41 25.1017 108.725 25.1017 114.041C25.1017 115.375 26.4782 116.445 27.7913 116.148C28.0454 116.095 28.2996 116.053 28.5537 116.053C31.5716 116.043 34.5895 116.043 37.6075 116.053C38.1263 116.053 38.6452 116.159 39.1535 116.17C39.8418 116.18 40.0747 115.979 40.043 115.291C39.9794 113.904 39.7782 112.516 39.81 111.14C39.8629 108.905 39.9688 106.618 41.2501 104.67C42.0973 103.378 42.9338 101.991 44.448 101.302C44.6175 101.228 44.8187 101.122 44.9246 100.974C45.4328 100.275 46.2164 100.191 46.9577 100.011C47.9742 99.767 48.959 99.354 49.9862 99.2163C51.7863 98.9728 53.6077 98.9728 55.3655 99.6082C56.0008 99.8411 56.6891 99.947 57.3351 100.169C57.7904 100.328 58.2457 100.54 58.6375 100.836C59.4423 101.44 60.2153 102.075 60.946 102.764C61.253 103.05 61.3801 103.505 61.6554 103.823C62.8944 105.22 63.1379 107.042 63.6038 108.715C63.9639 110.028 63.6885 111.51 63.6991 112.919C63.6991 113.353 63.7944 113.829 63.6674 114.221C63.2226 115.545 62.7673 116.89 62.1637 118.15C61.5178 119.473 60.4059 120.522 59.167 121.21C57.568 122.11 55.8843 122.947 53.9042 122.894C51.2251 122.83 48.5143 122.883 45.7929 122.883ZM47.5189 111.108C47.5507 111.606 47.5507 112.114 47.6248 112.612C47.8472 113.967 48.3978 115.026 49.7003 115.799C51.4475 116.826 53.5441 116.191 54.889 115.185C55.069 115.058 55.196 114.814 55.2702 114.592C55.9161 112.495 55.9902 110.388 55.3231 108.281C55.0478 107.412 54.4548 106.777 53.6289 106.491C52.3793 106.068 51.0769 106.173 49.8168 106.523C49.4673 106.618 49.1285 106.904 48.8849 107.19C47.9001 108.302 47.4236 109.604 47.5189 111.108ZM8.69905 109.848C8.67787 112.093 9.4297 113.332 11.3252 113.882C12.2252 114.147 13.3371 114.189 14.2054 113.893C15.3914 113.48 16.5562 112.781 16.6621 111.224C16.7468 110.081 16.8739 108.927 17.0009 107.783C17.128 106.618 16.7256 106.11 15.5608 106.142C14.0995 106.184 12.6382 106.269 11.1875 106.417C10.7639 106.459 10.3192 106.713 9.98034 106.999C9.01672 107.794 8.47668 108.8 8.69905 109.848Z" fill="white"/>
<path d="M92.0783 117.387C92.0783 120.034 92.0677 122.681 92.0783 125.329C92.0783 126.43 91.803 127.425 91.3689 128.442C90.8606 129.617 90.1405 130.602 89.3569 131.566C89.1981 131.756 88.9651 131.905 88.7533 132.042C88.245 132.36 87.7474 132.72 87.1861 132.932C86.4978 133.196 85.7566 133.355 85.0365 133.525C81.828 134.255 78.5771 133.789 75.3369 133.927C74.998 133.938 74.6486 134.065 74.3097 134.044C73.4308 133.98 72.9437 133.44 72.9119 132.423C72.8696 131.068 72.8802 129.713 72.9119 128.357C72.9225 127.563 73.3037 127.224 74.0873 127.224C75.9299 127.224 77.7618 127.245 79.6043 127.214C80.3773 127.203 81.1609 127.118 81.9127 126.949C82.8022 126.748 83.4693 126.197 83.8082 125.297C83.9247 125 84.1788 124.757 84.2635 124.45C84.3588 124.1 84.4435 123.656 84.3059 123.37C84.1894 123.126 83.7341 122.936 83.427 122.925C82.0928 122.872 80.7585 122.936 79.4243 122.893C78.3018 122.851 77.1794 122.745 76.0675 122.629C75.7393 122.597 75.4216 122.406 75.1039 122.29C74.5956 122.088 74.0662 121.908 73.5685 121.665C72.4037 121.082 71.3553 120.415 70.487 119.346C69.3963 118.012 68.9198 116.455 68.6022 114.92C68.2633 113.278 68.5068 111.52 68.4221 109.816C68.348 108.28 69.1952 107.02 69.5975 105.633C69.8729 104.69 70.5929 103.843 71.2177 103.028C72.9649 100.772 75.5063 99.8406 78.1536 99.3324C80.2291 98.93 82.3681 98.9088 84.38 99.883C84.74 100.052 85.1742 100.052 85.5554 100.211C86.0955 100.434 86.6249 100.709 87.1438 100.984C87.3132 101.069 87.4509 101.238 87.6203 101.313C88.5839 101.757 89.1981 102.573 89.8652 103.356C90.8712 104.51 91.21 105.972 91.7924 107.327C92.0148 107.835 92.0677 108.46 92.0677 109.032C92.0889 111.785 92.0783 114.591 92.0783 117.387ZM84.6342 112.357C84.6553 110.853 84.7612 109.392 83.9035 107.984C83.0352 106.544 81.648 105.644 79.9749 105.908C79.2549 106.025 78.4713 106.173 77.8783 106.554C76.6076 107.37 76.0993 108.778 75.8663 110.176C75.6228 111.658 75.6863 113.172 76.544 114.549C76.8617 115.057 77.19 115.428 77.7406 115.682C79.4666 116.508 81.2986 116.497 83.1305 116.423C84.147 116.381 84.56 116.01 84.613 114.983C84.6765 114.104 84.6342 113.236 84.6342 112.357Z" fill="white"/>
<path d="M114.391 104.574C114.391 99.0566 114.402 93.5502 114.381 88.0332C114.381 86.3602 115.037 86.2331 116.17 86.1484C117.737 86.0319 119.315 86.0848 120.893 86.1272C122.079 86.159 122.524 86.699 122.524 87.8956C122.524 98.7283 122.524 109.55 122.524 120.383C122.524 120.891 122.545 121.4 122.534 121.908C122.524 122.66 121.973 122.861 121.391 122.872C119.601 122.903 117.801 122.935 116.011 122.861C115.037 122.819 114.349 122.512 114.359 121.114C114.412 115.597 114.391 110.08 114.391 104.574Z" fill="white"/>
<path d="M108.611 112.242C108.611 114.805 108.621 117.357 108.6 119.92C108.579 121.942 108.526 123.975 108.473 125.998C108.462 126.315 108.409 126.654 108.282 126.94C107.552 128.581 107.012 130.329 105.55 131.525C104.364 132.499 103.083 133.304 101.526 133.505C99.9592 133.707 98.392 133.865 96.8142 134.035C95.7977 134.141 94.9611 133.368 94.9505 132.341C94.9399 131.028 94.9505 129.715 94.9505 128.401C94.9505 127.734 95.4482 127.237 96.1259 127.215C96.6236 127.194 97.1319 127.226 97.6296 127.173C98.4555 127.078 99.1862 126.644 99.6627 126.051C100.118 125.479 100.362 124.695 100.573 123.975C100.732 123.446 100.722 122.863 100.722 122.302C100.732 115.737 100.732 109.182 100.722 102.617C100.722 102.151 100.647 101.685 100.732 101.23C100.849 100.51 101.315 100.171 102.035 100.171C103.305 100.171 104.576 100.171 105.836 100.171C106.344 100.171 106.863 100.075 107.35 100.171C108.452 100.393 108.589 100.626 108.589 101.749C108.621 105.254 108.621 108.748 108.611 112.242Z" fill="white"/>
<path d="M118.317 84.0324C116.591 84.0324 114.865 84.0324 113.139 84.0324C112.239 84.0324 111.773 83.5877 111.773 82.6876C111.773 82.1899 111.836 81.7028 111.9 81.2051C111.974 80.6121 112.408 80.3156 112.938 80.3686C113.764 80.4533 114.145 79.7015 113.721 79.0132C113.255 78.2508 113.277 77.5307 113.605 76.7365C113.848 76.1435 113.901 75.4446 114.261 74.9469C114.823 74.1739 115.416 73.3692 116.443 73.0621C117.173 72.8503 117.819 72.3844 118.55 72.1832C119.62 71.8973 120.668 72.1726 121.674 72.6173C122.119 72.8185 122.563 73.0303 122.997 73.2527C123.241 73.3798 123.548 73.4962 123.686 73.708C123.972 74.1739 124.671 74.5975 124.353 75.1799C123.908 75.9529 123.273 76.7048 122.341 76.8954C122.023 76.9589 121.61 76.5353 121.25 76.3447C120.964 76.1965 120.7 76.0059 120.393 75.9106C120.202 75.847 119.958 75.9106 119.736 75.9C118.116 75.7941 117.936 76.2388 117.724 77.6789C117.629 78.3143 117.83 79.0661 118.105 79.6591C118.381 80.2627 119.111 80.3368 119.736 80.3474C120.964 80.3792 122.182 80.3474 123.41 80.358C124.332 80.358 124.713 80.6016 124.861 81.4805C124.956 82.0523 124.967 82.6664 124.882 83.2383C124.787 83.8842 124.226 84.0324 123.654 84.0324C121.854 84.0324 120.085 84.0324 118.317 84.0324Z" fill="white"/>
<path d="M47.7189 88.3096C48.4707 88.3625 49.2437 88.3307 49.985 88.479C50.7898 88.6378 51.0757 89.3897 50.9804 90.2686C50.8851 91.1157 50.9274 91.9946 50.9486 92.8523C50.9804 93.8265 50.8533 94.9807 49.7414 95.1396C49.392 95.1925 49.0214 95.0655 48.6613 95.0549C47.6554 95.0443 46.6388 95.076 45.6328 95.0443C44.4363 95.0125 43.6632 93.9112 43.9703 92.8311C44.1927 92.0581 44.0974 91.1792 44.0127 90.3533C43.8539 88.7967 44.5104 88.4896 45.887 88.3625C46.4906 88.3096 47.1047 88.3519 47.7189 88.3519C47.7189 88.3413 47.7189 88.3307 47.7189 88.3096Z" fill="white"/>
<path d="M14.0872 89.5168C14.0872 88.818 14.0872 88.1191 14.0872 87.4202C14.0978 86.6366 14.5214 86.1495 15.305 86.1283C16.6392 86.0966 17.9734 86.0966 19.2971 86.1283C19.9113 86.1389 20.356 86.4672 20.5148 87.0919C20.9384 88.7332 20.8537 90.3958 20.6207 92.0477C20.5254 92.683 19.9219 93.0748 19.2653 93.0748C17.9946 93.0748 16.7345 93.0748 15.4638 93.0748C14.5637 93.0748 14.1084 92.6407 14.0872 91.7406C14.0766 91.0099 14.0872 90.2687 14.0872 89.5168Z" fill="white"/>
<path d="M9.02889 93.086C8.51002 93.086 7.98057 93.0543 7.4617 93.0966C6.15923 93.1919 5.77802 92.5248 5.73567 91.5083C5.67213 90.0999 5.76743 88.6915 5.84156 87.2832C5.88391 86.5631 6.33925 86.1607 7.0699 86.1395C8.38295 86.1078 9.69601 86.1078 10.9985 86.1395C11.9197 86.1607 12.3645 86.7008 12.3857 87.8338C12.3962 88.4586 12.2692 89.0833 12.2798 89.7081C12.3009 90.5341 12.4704 91.36 12.1633 92.186C11.9303 92.8001 11.5915 93.1072 10.9349 93.086C10.289 93.0754 9.65365 93.086 9.02889 93.086Z" fill="white"/>
<path d="M55.9686 88.3641C56.5616 88.3641 57.144 88.3535 57.737 88.3641C59.0289 88.3959 59.2936 89.1583 59.2301 90.2596C59.1877 91.1385 59.1454 92.028 59.2513 92.8963C59.3783 93.9235 58.8489 95.0141 57.9488 95.1518C57.5782 95.2047 57.1864 95.0565 56.7946 95.0565C55.8098 95.0353 54.8144 95.0883 53.8296 95.0459C52.8448 95.0035 52.1883 94.0823 52.2836 93.1081C52.3789 92.1868 52.453 91.2444 52.4001 90.3125C52.3154 88.883 52.686 88.4065 54.1367 88.3536C54.7509 88.343 55.365 88.3641 55.9686 88.3641Z" fill="white"/>
<path d="M34.3025 147.467C34.1966 148.155 34.0801 148.844 33.9637 149.574C33.3071 149.437 32.7459 149.373 32.227 149.193C30.6281 148.621 28.4044 150.411 28.2032 151.946C28.0761 152.91 27.9278 153.884 27.9067 154.848C27.8643 157.029 27.8961 159.221 27.8855 161.402C27.8855 162.62 27.8431 162.641 26.636 162.62C25.9688 162.61 25.3123 162.62 24.5393 162.62C24.4864 162.133 24.4122 161.731 24.4122 161.339C24.4016 156.701 24.4016 152.073 24.4122 147.435C24.4122 146.165 24.6452 145.942 25.9265 145.91C26.0747 145.91 26.223 145.91 26.3818 145.91C27.6208 145.921 27.6631 145.953 28.0126 147.266C28.2455 147.192 28.4785 147.139 28.6797 147.033C29.2303 146.715 29.7386 146.323 30.3104 146.048C31.3693 145.55 32.4706 145.445 33.5824 145.889C33.8472 145.995 34.1437 146.069 34.4296 146.069C35.2555 146.048 36.0709 145.932 36.8863 145.932C37.7969 145.932 37.924 146.048 38.1676 146.885C38.7711 149.013 39.3535 151.142 39.9571 153.259C40.1795 154.043 40.4442 154.805 40.709 155.61C41.3125 155.504 41.3231 155.007 41.4184 154.657C42.0644 152.423 42.6785 150.178 43.2715 147.933C43.7798 146.027 44.4787 145.55 46.4059 145.953C46.713 146.016 47.0836 146.323 47.2213 146.609C47.6025 147.425 47.9096 148.272 48.1849 149.13C48.8308 151.173 49.4344 153.228 50.0698 155.261C50.1439 155.483 50.3345 155.663 50.5463 155.981C50.7157 155.684 50.864 155.525 50.9169 155.335C51.7217 152.518 52.5053 149.701 53.2995 146.885C53.5007 146.165 53.776 145.963 54.496 145.921C54.9514 145.9 55.3961 145.9 55.8515 145.921C56.6351 145.963 56.8574 146.218 56.6774 146.991C56.4656 147.901 56.2115 148.801 55.9573 149.701C55.0996 152.656 54.2313 155.61 53.3736 158.565C53.1089 159.465 52.9077 160.375 52.6535 161.286C52.2723 162.673 52.0711 162.8 50.5992 162.641C50.4828 162.631 50.3769 162.631 50.2604 162.631C49.0109 162.652 48.9579 162.663 48.5555 161.466C47.8566 159.369 47.2107 157.241 46.5542 155.123C46.3424 154.445 46.1624 153.746 45.9294 153.079C45.8659 152.899 45.6541 152.783 45.5058 152.635C45.347 152.804 45.0823 152.942 45.0293 153.143C44.2351 155.885 43.4621 158.628 42.6891 161.371C42.3397 162.62 42.1491 162.737 40.7831 162.641C40.2007 162.599 39.47 163.001 39.0782 162.493C38.6652 161.953 38.4852 161.212 38.2946 160.534C37.5534 157.982 36.8439 155.409 36.1344 152.846C35.7003 151.29 35.2873 149.733 34.8426 148.177C34.7684 147.912 34.6202 147.668 34.5037 147.425C34.4719 147.425 34.3872 147.446 34.3025 147.467Z" fill="white"/>
<path d="M22.2181 162.292C21.551 163.012 20.7992 162.705 20.1109 162.737C19.8991 162.748 19.6449 162.557 19.4649 162.621C18.4801 162.96 18.1942 162.292 17.9189 161.604C17.453 160.418 17.0188 159.222 16.5635 158.025C16.447 157.707 16.2988 157.4 16.1717 157.093C15.9917 156.648 15.6846 156.479 15.2081 156.49C12.8361 156.511 10.4641 156.5 8.09217 156.5C7.29798 156.5 6.81088 156.786 6.52497 157.623C6.04846 159.042 5.40252 160.408 4.83071 161.795C4.57657 162.419 4.19536 162.737 3.44353 162.631C2.65993 162.525 1.83398 162.854 0.955078 162.43C1.18804 161.742 1.37864 161.064 1.64337 160.418C3.29528 156.384 4.95778 152.36 6.63087 148.336C7.71096 145.742 8.82282 143.158 9.88174 140.542C10.1147 139.96 10.4747 139.716 11.0677 139.727C11.4807 139.737 11.8937 139.727 12.3067 139.727C13.6515 139.727 13.7891 139.812 14.2657 141.093C15.8117 145.233 17.3365 149.384 18.8931 153.525C19.8991 156.193 20.9474 158.84 21.964 161.509C22.0699 161.763 22.1334 162.017 22.2181 162.292ZM14.4351 153.493C14.488 152.476 12.3596 146.631 11.4383 145.392C11.3536 145.625 11.2795 145.805 11.216 145.985C10.3794 148.452 9.1405 150.771 8.3569 153.472C10.5171 153.514 12.4867 153.514 14.4351 153.493Z" fill="white"/>
<path d="M87.3747 168.698C87.1205 166.189 87.47 163.827 87.1417 161.392C86.8558 161.529 86.697 161.551 86.6017 161.646C85.5957 162.684 84.2615 163.075 82.9272 163.171C81.4448 163.277 80.0152 162.779 78.8504 161.815C77.2091 160.47 76.3937 158.67 76.0019 156.595C75.6737 154.89 75.6737 153.206 76.1078 151.565C77.0608 147.912 79.0728 145.55 83.0967 145.635C84.3038 145.656 85.458 146.016 86.4428 146.8C86.6017 146.927 86.824 146.969 86.9405 147.012C87.3429 146.609 87.6288 146.069 88.01 146.006C88.7619 145.879 89.5772 145.953 90.3502 146.059C90.5832 146.09 90.8479 146.482 90.9432 146.768C91.0491 147.075 90.9962 147.435 90.9962 147.774C90.9962 154.255 90.9962 160.735 90.9962 167.226C90.9962 168.645 90.7844 168.878 89.376 168.868C88.7301 168.857 88.0947 168.762 87.3747 168.698ZM87.1947 154.562C87.2158 153.291 87.1417 152.179 86.6546 151.12C85.9663 149.638 84.8015 148.78 83.372 148.812C81.8789 148.844 80.587 149.786 80.0046 151.216C79.3163 152.878 79.3905 154.604 79.6446 156.32C79.8352 157.569 80.3329 158.681 81.4765 159.422C82.9378 160.365 84.9709 160.036 86.0193 158.681C86.9617 157.4 87.1947 155.949 87.1947 154.562Z" fill="white"/>
<path d="M114.789 147.34C115.615 146.874 116.251 146.503 116.907 146.143C118.76 145.137 122.106 145.603 123.547 147.34C124.521 148.515 124.828 149.913 124.87 151.321C124.955 154.71 124.902 158.098 124.891 161.497C124.891 162.387 124.658 162.63 123.78 162.736C123.441 162.779 123.102 162.768 122.763 162.747C121.556 162.694 121.408 162.461 121.397 161.264C121.355 157.918 121.291 154.572 121.175 151.226C121.122 149.828 119.777 148.822 118.305 149.034C116.664 149.267 115.531 150.262 115.043 151.787C114.736 152.761 114.683 153.852 114.662 154.89C114.62 157.114 114.705 159.337 114.694 161.55C114.694 162.482 114.525 162.609 113.54 162.599C113.01 162.599 112.491 162.609 111.962 162.62C111.274 162.63 111.136 162.503 111.104 161.783C111.094 161.635 111.104 161.487 111.104 161.328C111.104 154.434 111.104 147.541 111.104 140.647C111.104 140.383 111.094 140.118 111.115 139.853C111.147 139.313 111.401 139.027 111.973 139.048C112.576 139.07 113.18 139.08 113.783 139.048C114.302 139.017 114.546 139.292 114.652 139.737C114.705 139.948 114.715 140.181 114.705 140.404C114.683 142.395 114.662 144.396 114.652 146.387C114.652 146.651 114.726 146.895 114.789 147.34Z" fill="white"/>
<path d="M73.1217 155.133C71.1839 155.133 69.4579 155.133 67.7319 155.133C66.1223 155.133 64.5128 155.133 62.9032 155.144C62.4055 155.144 62.1726 155.398 62.1726 155.927C62.1726 157.727 64.0786 159.75 65.9105 159.866C66.4718 159.898 67.0436 159.919 67.6048 159.856C68.4731 159.761 69.172 159.422 69.4685 158.49C69.5532 158.204 69.8391 157.791 70.0615 157.77C70.9086 157.685 71.7875 157.653 72.6241 157.759C73.0794 157.812 73.1641 158.289 73.037 158.765C72.5394 160.65 71.3745 161.942 69.5638 162.609C67.3612 163.414 65.1799 163.361 63.0091 162.418C61.2407 161.656 60.1288 160.269 59.3876 158.585C58.5405 156.69 58.3816 154.731 58.7311 152.655C59.0488 150.717 59.7688 149.055 61.1772 147.721C63.0091 145.984 65.1693 145.349 67.7001 145.772C70.0721 146.164 71.6922 147.456 72.5499 149.637C73.2171 151.342 73.3441 153.163 73.1217 155.133ZM62.755 152.083C63.0303 152.115 63.2738 152.168 63.528 152.168C65.2116 152.189 66.9059 152.2 68.5896 152.2C69.532 152.2 69.7014 151.946 69.4155 151.035C68.6955 148.737 65.4976 148.017 63.8139 149.828C63.2632 150.421 62.5326 151.014 62.755 152.083Z" fill="white"/>
<path d="M103.842 151.882C103.842 151.427 103.895 151.014 103.832 150.611C103.662 149.436 103.186 148.938 101.979 148.705C101.438 148.599 100.867 148.546 100.316 148.578C99.3948 148.642 98.6535 149.034 98.3041 149.965C97.944 150.94 97.2663 151.363 96.2286 151.194C95.9003 151.141 95.5721 151.141 95.2438 151.13C94.6085 151.12 94.2908 150.812 94.312 150.167C94.3331 149.372 94.6932 148.705 95.1591 148.112C96.1227 146.895 97.404 146.185 98.9288 145.825C100.464 145.465 101.989 145.486 103.472 145.878C105.886 146.524 107.22 147.72 107.252 150.251C107.284 152.666 107.284 155.069 107.252 157.484C107.241 158.807 107.358 160.099 107.707 161.38C108.025 162.514 107.76 162.778 106.564 162.694C106.235 162.672 105.907 162.736 105.579 162.746C104.933 162.778 104.425 162.619 104.128 161.942C103.821 161.264 103.63 161.222 103.037 161.666C102.021 162.418 100.92 162.926 99.6489 163.085C96.9487 163.414 94.7355 161.624 94.1637 159.602C93.4542 157.102 94.9579 154.635 97.3616 153.777C99.1512 153.142 101.015 152.697 102.847 152.168C103.165 152.094 103.472 151.998 103.842 151.882ZM103.705 154.847C102.847 155.08 102.042 155.228 101.29 155.514C100.422 155.832 99.543 156.192 98.7488 156.668C97.8593 157.198 97.5734 158.214 97.9335 158.998C98.3041 159.792 99.3948 160.353 100.274 160.184C102.603 159.729 104.192 157.653 103.705 154.847Z" fill="white"/>
<path d="M215.474 168.868C215.082 168.868 214.754 168.868 214.415 168.868C191.373 168.868 168.331 168.868 145.289 168.868C145.087 168.868 144.876 168.868 144.674 168.868C144.219 168.857 143.986 168.624 143.954 168.18C143.944 167.978 143.954 167.767 143.954 167.565C143.954 164.844 143.954 162.112 143.954 159.391C143.954 158.512 144.251 158.205 145.098 158.003C146.051 157.77 146.983 157.495 147.915 157.188C149.387 156.712 150.869 156.246 152.309 155.684C153.749 155.113 155.232 154.657 156.598 153.916C157.752 153.291 159.023 152.899 160.198 152.306C163.1 150.845 165.969 149.32 168.638 147.467C170.957 145.847 173.308 144.259 175.372 142.3C176.59 141.146 177.882 140.065 179.132 138.943C179.661 138.466 180.127 138.477 180.656 138.954C182.488 140.605 184.267 142.321 186.184 143.878C187.741 145.148 189.424 146.271 191.108 147.393C192.823 148.537 194.571 149.617 196.35 150.655C197.398 151.269 198.51 151.766 199.6 152.296C200.871 152.921 202.142 153.556 203.434 154.117C204.482 154.583 205.562 154.954 206.632 155.367C207.976 155.896 209.311 156.489 210.687 156.934C212 157.368 213.356 157.654 214.701 157.993C215.41 158.173 215.622 158.374 215.622 159.094C215.643 162.059 215.643 165.024 215.643 167.989C215.654 168.264 215.548 168.518 215.474 168.868Z" fill="#7DAFCE"/>
<path d="M179.904 0.447317C191.192 0.447317 202.469 0.447317 213.757 0.447317C214.033 0.447317 214.308 0.447317 214.573 0.447317C215.505 0.426139 215.632 0.510856 215.632 1.46388C215.642 4.39708 215.642 7.33027 215.611 10.2635C215.6 11.1953 215.42 11.28 214.488 11.513C213.186 11.8413 211.904 12.2542 210.613 12.646C209.871 12.8684 209.13 13.0908 208.399 13.3555C206.345 14.1179 204.259 14.8274 202.247 15.7063C200.616 16.4158 199.081 17.3688 197.471 18.1312C195.417 19.1054 193.49 20.2808 191.605 21.5303C190.419 22.3139 189.275 23.1611 188.121 23.9764C186.014 25.4483 184.065 27.1108 182.212 28.8898C181.683 29.3981 181.132 29.8852 180.582 30.3829C180.095 30.8276 179.713 30.8594 179.247 30.3935C177.161 28.318 174.874 26.4649 172.576 24.6224C171.295 23.5952 169.918 22.6634 168.542 21.7633C166.784 20.6197 164.984 19.529 163.173 18.4807C162.146 17.8877 161.066 17.39 159.996 16.8923C158.154 16.0346 156.322 15.1557 154.437 14.3932C152.838 13.7473 151.186 13.239 149.545 12.7202C147.999 12.2331 146.432 11.8201 144.875 11.3647C144.187 11.1636 143.975 10.9094 143.975 10.1999C143.964 7.23497 143.954 4.27 143.964 1.29445C143.964 0.606155 144.144 0.457906 144.939 0.447317C146.23 0.426139 147.533 0.436731 148.825 0.436731C159.17 0.44732 169.537 0.447317 179.904 0.447317Z" fill="#7DAFCE"/>
<path d="M143.957 118.008C143.957 109.451 143.957 100.885 143.957 92.3288C143.957 92.0535 143.936 91.7782 143.967 91.5134C144.031 90.9098 144.348 90.5498 144.941 90.5498C146.339 90.5498 147.726 90.6133 149.124 90.6451C149.738 90.6557 150.353 90.6769 150.967 90.6769C152.809 90.6875 154.652 90.6769 156.494 90.6769C157.553 90.6769 157.659 90.8039 157.765 91.7993C158.114 95.082 158.559 98.354 159.322 101.563C160.285 105.597 161.514 109.547 163.112 113.391C164.711 117.256 166.628 120.962 168.809 124.53C169.519 125.685 170.292 126.797 171.054 127.919C171.467 128.533 171.51 128.808 171.023 129.38C170.557 129.92 170.07 130.45 169.529 130.916C166.533 133.531 163.42 135.988 160.042 138.116C157.394 139.779 154.652 141.272 151.782 142.511C149.548 143.485 147.239 144.258 144.952 145.105C144.317 145.338 144.02 145.105 143.967 144.406C143.946 144.131 143.957 143.856 143.957 143.591C143.946 135.056 143.946 126.532 143.957 118.008Z" fill="#AA4E7E"/>
<path d="M143.953 51.2542C143.953 42.8041 143.953 34.3433 143.953 25.8932C143.953 24.2942 144.239 24.0718 145.764 24.6225C147.575 25.2684 149.385 25.9143 151.164 26.645C152.35 27.1321 153.483 27.7357 154.616 28.3181C156.152 29.1017 157.698 29.8641 159.18 30.7324C160.546 31.5372 161.881 32.4161 163.151 33.3585C164.824 34.608 166.423 35.9317 168.033 37.2553C168.965 38.0178 169.854 38.8331 170.765 39.6273C171.559 40.3156 171.612 40.7392 171.019 41.6393C169.865 43.3865 168.615 45.0913 167.578 46.9126C166.317 49.1152 165.163 51.3813 164.094 53.6791C163.215 55.5852 162.548 57.5865 161.764 59.5349C160.652 62.2775 160.038 65.179 159.276 68.0169C158.789 69.8488 158.577 71.7548 158.27 73.6291C158.079 74.8045 157.984 75.9905 157.804 77.1659C157.666 78.0554 157.507 78.1613 156.597 78.1719C152.71 78.1824 148.824 78.1824 144.938 78.193C144.186 78.193 143.985 78.0024 143.953 77.24C143.932 76.4246 143.943 75.5987 143.943 74.7833C143.953 66.9368 143.953 59.1008 143.953 51.2542Z" fill="#A2B867"/>
<path d="M215.324 145.286C213.355 144.577 211.48 143.973 209.68 143.221C207.933 142.501 206.207 141.707 204.544 140.818C202.405 139.684 200.266 138.52 198.244 137.196C196.55 136.095 194.993 134.782 193.426 133.49C192.028 132.336 190.704 131.097 189.36 129.879C189.18 129.72 189.031 129.54 188.883 129.349C188.322 128.672 188.354 128.513 188.841 127.761C189.889 126.141 190.937 124.521 191.922 122.869C192.97 121.09 193.998 119.3 194.898 117.447C195.713 115.774 196.391 114.038 197.09 112.311C198.35 109.23 199.335 106.053 200.129 102.824C200.616 100.812 200.976 98.768 201.336 96.7243C201.611 95.1888 201.939 93.664 201.897 92.0756C201.865 91.1226 202.321 90.9002 203.284 90.9637C204.195 91.0273 205.106 90.9637 206.016 90.9637C206.556 90.9532 207.107 90.932 207.647 90.932C209.86 90.9214 212.073 90.9214 214.297 90.9214C215.525 90.9214 215.631 91.0379 215.631 92.2662C215.631 109.272 215.631 126.279 215.631 143.285C215.631 143.655 215.674 144.037 215.631 144.407C215.61 144.683 215.462 144.916 215.324 145.286Z" fill="#A2B867"/>
<path d="M215.496 24.2407C215.559 24.8443 215.644 25.2361 215.644 25.6385C215.644 42.7823 215.644 59.9262 215.644 77.0701C215.644 77.2077 215.644 77.3454 215.644 77.483C215.602 78.2878 215.464 78.4255 214.67 78.4255C212.965 78.4255 211.26 78.3937 209.555 78.3937C207.48 78.3831 205.394 78.3937 203.318 78.3831C202.217 78.3831 202.026 78.2137 201.889 77.1124C201.688 75.4923 201.561 73.8721 201.296 72.2626C200.989 70.4201 200.629 68.5775 200.173 66.7668C199.655 64.7231 199.083 62.7006 198.405 60.6992C197.759 58.772 197.007 56.8765 196.224 54.9917C194.921 51.889 193.386 48.8923 191.649 46.012C190.707 44.4448 189.669 42.9306 188.663 41.3952C188.229 40.728 188.208 40.6116 188.737 40.0821C190.77 38.0913 192.909 36.2277 195.175 34.5016C197.251 32.9132 199.453 31.5261 201.677 30.1707C203.202 29.2388 204.811 28.4234 206.453 27.6822C208.761 26.6445 211.123 25.7126 213.484 24.7702C214.066 24.5478 214.702 24.4525 215.496 24.2407Z" fill="#AA4E7E"/>
<path d="M179.871 118.317C179.596 117.935 179.374 117.702 179.215 117.427C177.489 114.462 175.794 111.476 174.64 108.236C174.047 106.584 173.327 104.974 172.808 103.291C172.035 100.792 171.368 98.2608 171.029 95.6664C170.722 93.3474 170.235 91.0284 170.129 88.6987C169.981 85.6808 169.939 82.6206 170.203 79.6133C170.458 76.5742 171.019 73.5563 171.665 70.5701C172.597 66.2921 173.994 62.1411 175.943 58.202C176.959 56.1371 178.082 54.1251 179.183 52.1026C179.67 51.2131 180.094 51.2025 180.613 52.092C182.031 54.5169 183.44 56.9525 184.446 59.5997C185.198 61.6011 186.066 63.5601 186.775 65.572C187.252 66.9063 187.57 68.304 187.919 69.6912C188.258 71.036 188.544 72.3914 188.851 73.7469C188.861 73.8104 188.904 73.8739 188.914 73.9375C189.137 76.0341 189.391 78.1202 189.55 80.2274C189.687 81.9958 189.74 83.7642 189.751 85.5326C189.762 88.1587 189.444 90.753 189.147 93.358C188.967 94.9146 188.629 96.4394 188.321 97.9643C187.887 100.082 187.443 102.2 186.585 104.212C185.981 105.61 185.6 107.103 185.018 108.511C184.287 110.258 183.503 111.984 182.646 113.679C181.926 115.098 181.078 116.453 180.284 117.83C180.21 117.935 180.115 118.031 179.871 118.317Z" fill="#C16D2B"/>
</svg>
