<svg xmlns="http://www.w3.org/2000/svg" version="1.1" xmlns:xlink="http://www.w3.org/1999/xlink"
    xmlns:svgjs="http://svgjs.com/svgjs" width="512" height="512" x="0" y="0" viewBox="0 0 66 66"
    style="enable-background:new 0 0 512 512" xml:space="preserve"><g><g><g><path d="m53 47.2-6.7 4.6c-3 2.1-9.6 1.3-13.3 0-.5-.2-.5-1 .2-1h4.3c2.4 0 .8-1.1 5-.9 1.1 0 2.5.2 3.3-.6.3-.2.5-.7.5-1.4v-2.6c1.3-.5 2.3-1.7 2.3-3.2 0-1.2-.6-2.2-1.5-2.8.2-8.1 10.7-8 10.7-20.9 0-10.2-8.9-18.4-19.4-17.3-7.8.9-14.2 7.1-15.2 14.8-2 14.6 10.3 14.9 10.5 23.4-.9.6-1.5 1.5-1.5 2.7-.1.4.1 1.2.3 1.6-5.7-.2-10.7-.4-14 2.3v-.5c0-1.1-.9-2-2-2h-6.6c-1.1 0-2 .9-2 2v17.6c0 1.1.9 2 2 2h6.6c1.1 0 2-.9 2-2v-1l11.6 2.2c2 .4 2.2.2 12.9-1.8 2.5-.5 2.4-.8 13.9-10 1.3-1.1 1.6-2.9.7-4.4-1.1-1.5-3.1-1.9-4.6-.8zm-12 .7c.1-.8 0-1.6-.3-2.3h3.5v2.3c-.4.1-1.8 0-3.2 0zm-15.9-31.7c.9-6.8 6.6-12.3 13.5-13.1 9.3-1 17.2 6.2 17.2 15.3 0 11.8-10.1 11.6-10.7 20.4h-3.7v-15.2l2 2c.4.4 1 .4 1.4 0l3.7-3.7c.4-.4.4-1 0-1.4s-1-.4-1.4 0l-3 3-3-3c-.4-.4-1-.4-1.4 0l-3 3-3-3c-.4-.4-1-.4-1.4 0s-.4 1 0 1.4l3.7 3.7c.4.4 1 .4 1.4 0l2-2v15.2h-3.7c-.7-9.4-12.4-9.2-10.6-22.6zm9.1 26c0-.8.6-1.4 1.4-1.4h9.6c.8 0 1.4.6 1.4 1.4s-.6 1.4-1.4 1.4c-.1 0-10 0-9.8 0-.8-.1-1.2-.8-1.2-1.4zm-24.3 20.8v-17.7h6.6v17.7zm45.7-12.2c-11.3 9.1-11.1 9.2-13 9.6-10.6 2-10.6 2.2-12.1 1.8l-12-2.2v-11.1c2.1-3.9 8.3-3.5 16.9-3.3 1.3.2 3.7-.6 3.7 1.6 0 .9-.6 1.6-1.6 1.6h-4.3c-2.9 0-3.5 4-.8 4.9 3.8 1.3 11.2 2.3 15-.3l6.7-4.6c.6-.4 1.4-.3 1.8.3.3.6.2 1.3-.3 1.7z" fill="#652980" data-original="#000000"></path></g><g><path d="m13.2 57.3c-.6 0-1 .4-1 1v2c0 .6.4 1 1 1s1-.4 1-1v-2c0-.6-.4-1-1-1z" fill="#652980" data-original="#000000"></path></g></g></g></svg>